<svg viewBox="0 0 32 32" xmlns="http://www.w3.org/2000/svg"><path d="M31 0h1v1h-1z" style="opacity:1;fill:none;fill-opacity:1;stroke-width:0;stroke-dasharray:none"/><path d="M31 0h1v1h-1zM31 1h1v1h-1zM31 2h1v1h-1zM31 3h1v1h-1zM31 4h1v1h-1zM31 5h1v1h-1zM31 6h1v1h-1zM31 7h1v1h-1zM31 8h1v1h-1zM31 9h1v1h-1zM31 10h1v1h-1zM31 11h1v1h-1zM31 12h1v1h-1zM31 13h1v1h-1zM31 14h1v1h-1zM31 15h1v1h-1zM31 16h1v1h-1zM31 17h1v1h-1zM31 18h1v1h-1zM31 19h1v1h-1zM31 20h1v1h-1zM31 21h1v1h-1zM31 22h1v1h-1z" style="fill:none;fill-opacity:1;stroke-width:0;stroke-dasharray:none"/><path d="M31 23h1v1h-1zM31 24h1v1h-1zM31 25h1v1h-1z" style="fill:#e7a141;fill-opacity:1;stroke-width:0;stroke-dasharray:none"/><path d="M31 26h1v1h-1zM31 27h1v1h-1zM31 28h1v1h-1zM31 29h1v1h-1zM31 30h1v1h-1zM31 31h1v1h-1zM0 0h1v1H0zM0 1h1v1H0zM0 2h1v1H0zM0 3h1v1H0zM0 4h1v1H0zM0 5h1v1H0zM0 6h1v1H0zM0 7h1v1H0zM0 8h1v1H0zM0 9h1v1H0zM0 10h1v1H0zM0 11h1v1H0zM0 12h1v1H0zM0 13h1v1H0zM0 14h1v1H0z" style="fill:none;fill-opacity:1;stroke-width:0;stroke-dasharray:none"/><path d="M0 15h1v1H0zM0 16h1v1H0z" style="fill:#e7a141;fill-opacity:1;stroke-width:0;stroke-dasharray:none"/><path d="M0 17h1v1H0zM0 18h1v1H0zM0 19h1v1H0zM0 20h1v1H0zM0 21h1v1H0zM0 22h1v1H0zM0 23h1v1H0zM0 24h1v1H0zM0 25h1v1H0zM0 26h1v1H0zM0 27h1v1H0zM0 28h1v1H0zM0 29h1v1H0zM0 30h1v1H0zM0 31h1v1H0zM1 0h1v1H1zM1 1h1v1H1zM1 2h1v1H1zM1 3h1v1H1zM1 4h1v1H1zM1 5h1v1H1z" style="fill:none;fill-opacity:1;stroke-width:0;stroke-dasharray:none"/><path d="M1 6h1v1H1zM1 7h1v1H1z" style="fill:#e7a141;fill-opacity:1;stroke-width:0;stroke-dasharray:none"/><path d="M1 8h1v1H1z" style="fill:none;fill-opacity:1;stroke-width:0;stroke-dasharray:none"/><path d="M1 9h1v1H1zM1 10h1v1H1zM1 11h1v1H1z" style="fill:#e7a141;fill-opacity:1;stroke-width:0;stroke-dasharray:none"/><path d="M1 12h1v1H1z" style="fill:none;fill-opacity:1;stroke-width:0;stroke-dasharray:none"/><path d="M1 13h1v1H1zM1 14h1v1H1z" style="fill:#e7a141;fill-opacity:1;stroke-width:0;stroke-dasharray:none"/><path d="M1 15h1v1H1zM1 16h1v1H1z" style="fill:#f8dfa7;fill-opacity:.99973565;stroke:#579700;stroke-width:0;stroke-dasharray:none;stroke-opacity:.819608"/><path d="M1 17h1v1H1zM1 18h1v1H1z" style="fill:#e7a141;fill-opacity:1;stroke-width:0;stroke-dasharray:none"/><path d="M1 19h1v1H1zM1 20h1v1H1zM1 21h1v1H1zM1 22h1v1H1zM1 23h1v1H1zM1 24h1v1H1zM1 25h1v1H1zM1 26h1v1H1zM1 27h1v1H1zM1 28h1v1H1z" style="fill:none;fill-opacity:1;stroke-width:0;stroke-dasharray:none"/><path d="M1 29h1v1H1z" style="fill:#e7a141;fill-opacity:1;stroke-width:0;stroke-dasharray:none"/><path d="M1 30h1v1H1zM1 31h1v1H1zM2 0h1v1H2zM2 1h1v1H2zM2 2h1v1H2zM2 3h1v1H2zM2 4h1v1H2z" style="fill:none;fill-opacity:1;stroke-width:0;stroke-dasharray:none"/><path d="M2 5h1v1H2z" style="fill:#e7a141;fill-opacity:1;stroke-width:0;stroke-dasharray:none"/><path d="M2 6h1v1H2z" style="fill:#f8dfa7;fill-opacity:.99973565;stroke-width:0;stroke-dasharray:none"/><path d="M2 7h1v1H2z" style="fill:#f7d687;fill-opacity:1;stroke-width:0;stroke-dasharray:none"/><path d="M2 8h1v1H2z" style="fill:#e7a141;fill-opacity:1;stroke-width:0;stroke-dasharray:none"/><path d="M2 9h1v1H2zM2 10h1v1H2z" style="fill:#f7d687;fill-opacity:1;stroke-width:0;stroke-dasharray:none"/><path d="M2 11h1v1H2z" style="fill:#e7a141;fill-opacity:1;stroke:#0ff;stroke-width:0;stroke-dasharray:none;stroke-opacity:1"/><path d="M2 12h1v1H2z" style="fill:#e7a141;fill-opacity:1;stroke-width:0;stroke-dasharray:none"/><path d="M2 13h1v1H2zM2 14h1v1H2zM2 15h1v1H2zM2 16h1v1H2zM2 17h1v1H2zM2 18h1v1H2z" style="fill:#f8dfa7;fill-opacity:.99973565;stroke-width:0;stroke-dasharray:none"/><path d="M2 19h1v1H2z" style="fill:#e7a141;fill-opacity:1;stroke-width:0;stroke-dasharray:none"/><path d="M2 20h1v1H2zM2 21h1v1H2zM2 22h1v1H2zM2 23h1v1H2zM2 24h1v1H2zM2 25h1v1H2zM2 26h1v1H2zM2 27h1v1H2z" style="fill:none;fill-opacity:1;stroke-width:0;stroke-dasharray:none"/><path d="M2 28h1v1H2zM2 29h1v1H2z" style="fill:#e7a141;fill-opacity:1;stroke-width:0;stroke-dasharray:none"/><path d="M2 30h1v1H2zM2 31h1v1H2zM3 0h1v1H3zM3 1h1v1H3zM3 2h1v1H3zM3 3h1v1H3z" style="fill:none;fill-opacity:1;stroke-width:0;stroke-dasharray:none"/><path d="M3 4h1v1H3z" style="fill:#e7a141;fill-opacity:1;stroke-width:0;stroke-dasharray:none"/><path d="M3 5h1v1H3z" style="fill:#f8dfa7;fill-opacity:.99973565;stroke-width:0;stroke-dasharray:none"/><path d="M3 6h1v1H3zM3 7h1v1H3zM3 8h1v1H3zM3 9h1v1H3z" style="fill:#f7d687;fill-opacity:1;stroke-width:0;stroke-dasharray:none"/><path d="M3 10h1v1H3z" style="fill:#e7a141;fill-opacity:1;stroke-width:0;stroke-dasharray:none"/><path d="M3 11h1v1H3zM3 12h1v1H3z" style="fill:#f8dfa7;fill-opacity:.99973565;stroke-width:0;stroke-dasharray:none"/><path d="M3 13h1v1H3z" style="fill:#f8c58c;fill-opacity:.99973565;stroke-width:0;stroke-dasharray:none"/><path d="M3 14h1v1H3z" style="fill:#f8dfa7;fill-opacity:1;stroke-width:0;stroke-dasharray:none"/><path d="M3 15h1v1H3zM3 16h1v1H3zM3 17h1v1H3zM3 18h1v1H3z" style="fill:#f8dfa7;fill-opacity:.99973565;stroke-width:0;stroke-dasharray:none"/><path d="M3 19h1v1H3z" style="fill:#e7a141;fill-opacity:1;stroke-width:0;stroke-dasharray:none"/><path d="M3 20h1v1H3z" style="fill:none;fill-opacity:1;stroke-width:0;stroke-dasharray:none"/><path d="M3 21h1v1H3zM3 22h1v1H3z" style="fill:#e7a141;fill-opacity:1;stroke-width:0;stroke-dasharray:none"/><path d="M3 23h1v1H3zM3 24h1v1H3zM3 25h1v1H3zM3 26h1v1H3z" style="fill:none;fill-opacity:1;stroke-width:0;stroke-dasharray:none"/><path d="M3 27h1v1H3z" style="fill:#e7a141;fill-opacity:1;stroke-width:0;stroke-dasharray:none"/><path d="M3 28h1v1H3z" style="fill:#f7d687;fill-opacity:1;stroke-width:0;stroke-dasharray:none"/><path d="M3 29h1v1H3z" style="fill:#e7a141;fill-opacity:1;stroke-width:0;stroke-dasharray:none"/><path d="M3 30h1v1H3zM3 31h1v1H3zM4 0h1v1H4zM4 1h1v1H4zM4 2h1v1H4z" style="fill:none;fill-opacity:1;stroke-width:0;stroke-dasharray:none"/><path d="M4 3h1v1H4z" style="fill:#e7a141;fill-opacity:1;stroke-width:0;stroke-dasharray:none"/><path d="M4 4h1v1H4zM4 5h1v1H4z" style="fill:#f8dfa7;fill-opacity:.99973565;stroke-width:0;stroke-dasharray:none"/><path d="M4 6h1v1H4zM4 7h1v1H4zM4 8h1v1H4z" style="fill:#f7d687;fill-opacity:1;stroke-width:0;stroke-dasharray:none"/><path d="M4 9h1v1H4z" style="fill:#e7a141;fill-opacity:1;stroke-width:0;stroke-dasharray:none"/><path d="M4 10h1v1H4zM4 11h1v1H4z" style="fill:#f8dfa7;fill-opacity:.99973565;stroke-width:0;stroke-dasharray:none"/><path d="M4 12h1v1H4zM4 13h1v1H4zM4 14h1v1H4z" style="fill:#f8c58c;fill-opacity:.99973565;stroke-width:0;stroke-dasharray:none"/><path d="M4 15h1v1H4zM4 16h1v1H4zM4 17h1v1H4zM4 18h1v1H4zM4 19h1v1H4z" style="fill:#f8dfa7;fill-opacity:.99973565;stroke-width:0;stroke-dasharray:none"/><path d="M4 20h1v1H4z" style="fill:#eaad58;fill-opacity:1;stroke-width:0;stroke-dasharray:none"/><path d="M4 21h1v1H4zM4 22h1v1H4z" style="fill:#f8dfa7;fill-opacity:.99973565;stroke:#579700;stroke-width:0;stroke-dasharray:none;stroke-opacity:.819608"/><path d="M4 23h1v1H4zM4 24h1v1H4z" style="fill:#e7a141;fill-opacity:1;stroke-width:0;stroke-dasharray:none"/><path d="M4 25h1v1H4zM4 26h1v1H4z" style="fill:none;fill-opacity:1;stroke-width:0;stroke-dasharray:none"/><path d="M4 27h1v1H4z" style="fill:#e7a141;fill-opacity:1;stroke-width:0;stroke-dasharray:none"/><path d="M4 28h1v1H4z" style="fill:#f7d687;fill-opacity:1;stroke-width:0;stroke-dasharray:none"/><path d="M4 29h1v1H4z" style="fill:#e7a141;fill-opacity:1;stroke-width:0;stroke-dasharray:none"/><path d="M4 30h1v1H4zM4 31h1v1H4zM5 0h1v1H5zM5 1h1v1H5zM5 2h1v1H5z" style="fill:none;fill-opacity:1;stroke-width:0;stroke-dasharray:none"/><path d="M5 3h1v1H5z" style="fill:#e7a141;fill-opacity:1;stroke-width:0;stroke-dasharray:none"/><path d="M5 4h1v1H5z" style="fill:#f8dfa7;fill-opacity:.99973565;stroke-width:0;stroke-dasharray:none"/><path d="M5 5h1v1H5zM5 6h1v1H5zM5 7h1v1H5z" style="fill:#f7d687;fill-opacity:1;stroke-width:0;stroke-dasharray:none"/><path d="M5 8h1v1H5z" style="fill:#e7a141;fill-opacity:1;stroke-width:0;stroke-dasharray:none"/><path d="M5 9h1v1H5zM5 10h1v1H5zM5 11h1v1H5zM5 12h1v1H5z" style="fill:#f8dfa7;fill-opacity:.99973565;stroke-width:0;stroke-dasharray:none"/><path d="M5 13h1v1H5z" style="fill:#f8c58c;fill-opacity:.99973565;stroke-width:0;stroke-dasharray:none"/><path d="M5 14h1v1H5zM5 15h1v1H5zM5 16h1v1H5zM5 17h1v1H5zM5 18h1v1H5zM5 19h1v1H5z" style="fill:#f8dfa7;fill-opacity:.99973565;stroke-width:0;stroke-dasharray:none"/><path d="M5 20h1v1H5z" style="fill:#edb970;fill-opacity:1;stroke:#574c00;stroke-width:0;stroke-dasharray:none;stroke-opacity:.819608"/><path d="M5 21h1v1H5zM5 22h1v1H5z" style="fill:#f8dfa7;fill-opacity:.99973565;stroke:#579700;stroke-width:0;stroke-dasharray:none;stroke-opacity:.819608"/><path d="M5 23h1v1H5zM5 24h1v1H5z" style="fill:#f8dfa7;fill-opacity:.99973565;stroke-width:0;stroke-dasharray:none"/><path d="M5 25h1v1H5zM5 26h1v1H5z" style="fill:#e7a141;fill-opacity:1;stroke-width:0;stroke-dasharray:none"/><path d="M5 27h1v1H5zM5 28h1v1H5z" style="fill:#f7d687;fill-opacity:1;stroke-width:0;stroke-dasharray:none"/><path d="M5 29h1v1H5z" style="fill:#e7a141;fill-opacity:1;stroke-width:0;stroke-dasharray:none"/><path d="M5 30h1v1H5zM5 31h1v1H5zM6 0h1v1H6zM6 1h1v1H6zM6 2h1v1H6z" style="fill:none;fill-opacity:1;stroke-width:0;stroke-dasharray:none"/><path d="M6 3h1v1H6z" style="fill:#e7a141;fill-opacity:1;stroke-width:0;stroke-dasharray:none"/><path d="M6 4h1v1H6z" style="fill:#f8dfa7;fill-opacity:.99973565;stroke-width:0;stroke-dasharray:none"/><path d="M6 5h1v1H6zM6 6h1v1H6z" style="fill:#f7d687;fill-opacity:1;stroke-width:0;stroke-dasharray:none"/><path d="M6 7h1v1H6z" style="fill:#e7a141;fill-opacity:1;stroke-width:0;stroke-dasharray:none"/><path d="M6 8h1v1H6z" style="fill:#f8dfa7;fill-opacity:.99973565;stroke-width:0;stroke-dasharray:none"/><path d="M6 9h1v1H6zM6 10h1v1H6zM6 11h1v1H6z" style="fill:#c86255;fill-opacity:1;stroke-width:0;stroke-dasharray:none"/><path d="M6 12h1v1H6zM6 13h1v1H6zM6 14h1v1H6zM6 15h1v1H6zM6 16h1v1H6zM6 17h1v1H6zM6 18h1v1H6zM6 19h1v1H6z" style="fill:#f8dfa7;fill-opacity:.99973565;stroke-width:0;stroke-dasharray:none"/><path d="M6 20h1v1H6z" style="fill:#efbf7b;fill-opacity:1;stroke-width:0;stroke-dasharray:none"/><path d="M6 21h1v1H6zM6 22h1v1H6zM6 23h1v1H6zM6 24h1v1H6zM6 25h1v1H6zM6 26h1v1H6z" style="fill:#f8dfa7;fill-opacity:.99973565;stroke-width:0;stroke-dasharray:none"/><path d="M6 27h1v1H6zM6 28h1v1H6zM6 29h1v1H6z" style="fill:#e7a141;fill-opacity:1;stroke-width:0;stroke-dasharray:none"/><path d="M6 30h1v1H6zM6 31h1v1H6zM7 0h1v1H7zM7 1h1v1H7zM7 2h1v1H7z" style="fill:none;fill-opacity:1;stroke-width:0;stroke-dasharray:none"/><path d="M7 3h1v1H7z" style="fill:#e7a141;fill-opacity:1;stroke-width:0;stroke-dasharray:none"/><path d="M7 4h1v1H7zM7 5h1v1H7z" style="fill:#f8dfa7;fill-opacity:.99973565;stroke-width:0;stroke-dasharray:none"/><path d="M7 6h1v1H7z" style="fill:#e7a141;fill-opacity:1;stroke-width:0;stroke-dasharray:none"/><path d="M7 7h1v1H7zM7 8h1v1H7z" style="fill:#f8dfa7;fill-opacity:.99973565;stroke-width:0;stroke-dasharray:none"/><path d="M7 9h1v1H7zM7 10h1v1H7zM7 11h1v1H7z" style="fill:#c86255;fill-opacity:1;stroke-width:0;stroke-dasharray:none"/><path d="M7 12h1v1H7zM7 13h1v1H7zM7 14h1v1H7zM7 15h1v1H7zM7 16h1v1H7zM7 17h1v1H7zM7 18h1v1H7zM7 19h1v1H7zM7 20h1v1H7zM7 21h1v1H7zM7 22h1v1H7zM7 23h1v1H7zM7 24h1v1H7zM7 25h1v1H7zM7 26h1v1H7zM7 27h1v1H7zM7 28h1v1H7zM7 29h1v1H7z" style="fill:#f8dfa7;fill-opacity:.99973565;stroke-width:0;stroke-dasharray:none"/><path d="M7 30h1v1H7z" style="fill:#e7a141;fill-opacity:1;stroke-width:0;stroke-dasharray:none"/><path d="M7 31h1v1H7zM8 0h1v1H8zM8 1h1v1H8zM8 2h1v1H8z" style="fill:none;fill-opacity:1;stroke-width:0;stroke-dasharray:none"/><path d="M8 3h1v1H8z" style="fill:#e7a141;fill-opacity:1;stroke-width:0;stroke-dasharray:none"/><path d="M8 4h1v1H8zM8 5h1v1H8zM8 6h1v1H8zM8 7h1v1H8zM8 8h1v1H8zM8 9h1v1H8zM8 10h1v1H8zM8 11h1v1H8zM8 12h1v1H8zM8 13h1v1H8zM8 14h1v1H8zM8 15h1v1H8zM8 16h1v1H8zM8 17h1v1H8zM8 18h1v1H8zM8 19h1v1H8zM8 20h1v1H8zM8 21h1v1H8zM8 22h1v1H8zM8 23h1v1H8zM8 24h1v1H8zM8 25h1v1H8zM8 26h1v1H8zM8 27h1v1H8z" style="fill:#f8dfa7;fill-opacity:.99973565;stroke-width:0;stroke-dasharray:none"/><path d="M8 28h1v1H8zM8 29h1v1H8z" style="fill:#e7a141;fill-opacity:1;stroke-width:0;stroke-dasharray:none"/><path d="M8 30h1v1H8zM8 31h1v1H8zM9 0h1v1H9zM9 1h1v1H9z" style="fill:none;fill-opacity:1;stroke-width:0;stroke-dasharray:none"/><path d="M9 2h1v1H9z" style="fill:#e7a141;fill-opacity:1;stroke-width:0;stroke-dasharray:none"/><path d="M9 3h1v1H9zM9 4h1v1H9zM9 5h1v1H9zM9 6h1v1H9zM9 7h1v1H9zM9 8h1v1H9zM9 9h1v1H9z" style="fill:#f8dfa7;fill-opacity:.99973565;stroke-width:0;stroke-dasharray:none"/><path d="M9 10h1v1H9zM9 11h1v1H9zM9 12h1v1H9zM9 13h1v1H9z" style="fill:#e7a141;fill-opacity:1;stroke-width:0;stroke-dasharray:none"/><path d="M9 14h1v1H9zM9 15h1v1H9zM9 16h1v1H9zM9 17h1v1H9zM9 18h1v1H9zM9 19h1v1H9zM9 20h1v1H9z" style="fill:#f8dfa7;fill-opacity:.99973565;stroke-width:0;stroke-dasharray:none"/><path d="M9 21h1v1H9zM9 22h1v1H9z" style="fill:#f7d687;fill-opacity:1;stroke-width:0;stroke-dasharray:none"/><path d="M9 23h1v1H9zM9 24h1v1H9zM9 25h1v1H9zM9 26h1v1H9z" style="fill:#f8dfa7;fill-opacity:.99973565;stroke-width:0;stroke-dasharray:none"/><path d="M9 27h1v1H9z" style="fill:#e7a141;fill-opacity:1;stroke:#579700;stroke-width:0;stroke-dasharray:none;stroke-opacity:1"/><path d="M9 28h1v1H9z" style="fill:#f7d687;fill-opacity:1;stroke-width:0;stroke-dasharray:none"/><path d="M9 29h1v1H9z" style="fill:#e7a141;fill-opacity:1;stroke-width:0;stroke-dasharray:none"/><path d="M9 30h1v1H9zM9 31h.956v1H9zM10 0h1v1h-1z" style="fill:none;fill-opacity:1;stroke-width:0;stroke-dasharray:none"/><path d="M10 1h1v1h-1z" style="fill:#e7a141;fill-opacity:1;stroke-width:0;stroke-dasharray:none"/><path d="M10 2h1v1h-1zM10 3h1v1h-1zM10 4h1v1h-1zM10 5h1v1h-1zM10 6h1v1h-1zM10 7h1v1h-1zM10 8h1v1h-1z" style="fill:#f8dfa7;fill-opacity:.99973565;stroke-width:0;stroke-dasharray:none"/><path d="M10 9h1v1h-1z" style="fill:#e7a141;fill-opacity:1;stroke-width:0;stroke-dasharray:none"/><path d="M10 10h1v1h-1zM10 11h1v1h-1zM10 12h1v1h-1zM10 13h1v1h-1z" style="fill:#f8dfa7;fill-opacity:.99973565;stroke-width:0;stroke-dasharray:none"/><path d="M10 14h1v1h-1z" style="fill:#e7a141;fill-opacity:1;stroke-width:0;stroke-dasharray:none"/><path d="M10 15h1v1h-1zM10 16h1v1h-1zM10 17h1v1h-1zM10 18h1v1h-1zM10 19h1v1h-1z" style="fill:#f8dfa7;fill-opacity:.99973565;stroke-width:0;stroke-dasharray:none"/><path d="M10 20h1v1h-1zM10 21h1v1h-1zM10 22h1v1h-1zM10 23h1v1h-1z" style="fill:#f7d687;fill-opacity:1;stroke-width:0;stroke-dasharray:none"/><path d="M10 24h1v1h-1zM10 25h1v1h-1zM10 26h1v1h-1z" style="fill:#f8dfa7;fill-opacity:.99973565;stroke-width:0;stroke-dasharray:none"/><path d="M10 27h1v1h-1zM10 28h1v1h-1z" style="fill:#f7d687;fill-opacity:1;stroke-width:0;stroke-dasharray:none"/><path d="M10 29h1v1h-1z" style="fill:#e7a141;fill-opacity:1;stroke-width:0;stroke-dasharray:none"/><path d="M10 30h1v1h-1zM10 31h1v1h-1zM11 0h1v1h-1zM11 1h1v1h-1z" style="fill:none;fill-opacity:1;stroke-width:0;stroke-dasharray:none"/><path d="M11 2h1v1h-1z" style="fill:#e7a141;fill-opacity:1;stroke-width:0;stroke-dasharray:none"/><path d="M11 3h1v1h-1zM11 4h1v1h-1zM11 5h1v1h-1zM11 6h1v1h-1zM11 7h1v1h-1zM11 8h1v1h-1z" style="fill:#f8dfa7;fill-opacity:.99973565;stroke-width:0;stroke-dasharray:none"/><path d="M11 9h1v1h-1z" style="fill:#e7a141;fill-opacity:1;stroke-width:0;stroke-dasharray:none"/><path d="M11 10h1v1h-1z" style="fill:#f8dfa7;fill-opacity:.99973565;stroke-width:0;stroke-dasharray:none"/><path d="M11 11h1v1h-1z" style="fill:#b3473a;fill-opacity:1;stroke-width:0;stroke-dasharray:none"/><path d="M11 12h1v1h-1z" style="fill:#f8dfa7;fill-opacity:.99973565;stroke-width:0;stroke-dasharray:none"/><path d="M11 13h1v1h-1z" style="fill:#e7a141;fill-opacity:1;stroke-width:0;stroke-dasharray:none"/><path d="M11 14h1v1h-1zM11 15h1v1h-1z" style="fill:#f8dfa7;fill-opacity:.99973565;stroke-width:0;stroke-dasharray:none"/><path d="M11 16h1v1h-1z" style="fill:#f7d687;fill-opacity:1;stroke-width:0;stroke-dasharray:none"/><path d="M11 17h1v1h-1zM11 18h1v1h-1zM11 19h1v1h-1z" style="fill:#f8dfa7;fill-opacity:.99973565;stroke-width:0;stroke-dasharray:none"/><path d="M11 20h1v1h-1zM11 21h1v1h-1zM11 22h1v1h-1zM11 23h1v1h-1z" style="fill:#f7d687;fill-opacity:1;stroke-width:0;stroke-dasharray:none"/><path d="M11 24h1v1h-1zM11 25h1v1h-1zM11 26h1v1h-1z" style="fill:#f8dfa7;fill-opacity:.99973565;stroke-width:0;stroke-dasharray:none"/><path d="M11 27h1v1h-1zM11 28h1v1h-1z" style="fill:#f7d687;fill-opacity:1;stroke-width:0;stroke-dasharray:none"/><path d="M11 29h1v1h-1z" style="fill:#e7a141;fill-opacity:1;stroke-width:0;stroke-dasharray:none"/><path d="M11 30h1v1h-1zM11 31h1v1h-1zM12 0h1v1h-1z" style="fill:none;fill-opacity:1;stroke-width:0;stroke-dasharray:none"/><path d="M12 1h1v1h-1z" style="fill:#e7a141;fill-opacity:1;stroke-width:0;stroke-dasharray:none"/><path d="M12 2h1v1h-1zM12 3h1v1h-1zM12 4h1v1h-1zM12 5h1v1h-1zM12 6h1v1h-1zM12 7h1v1h-1zM12 8h1v1h-1z" style="fill:#f8dfa7;fill-opacity:.99973565;stroke-width:0;stroke-dasharray:none"/><path d="M12 9h1v1h-1z" style="fill:#e7a141;fill-opacity:1;stroke-width:0;stroke-dasharray:none"/><path d="M12 10h1v1h-1z" style="fill:#f8dfa7;fill-opacity:.99973565;stroke-width:0;stroke-dasharray:none"/><path d="M12 11h1v1h-1z" style="fill:#b3473a;fill-opacity:1;stroke-width:0;stroke-dasharray:none"/><path d="M12 12h1v1h-1zM12 13h1v1h-1z" style="fill:#f8dfa7;fill-opacity:.99973565;stroke-width:0;stroke-dasharray:none"/><path d="M12 14h1v1h-1z" style="fill:#e7a141;fill-opacity:1;stroke-width:0;stroke-dasharray:none"/><path d="M12 15h1v1h-1z" style="fill:#f8dfa7;fill-opacity:.99973565;stroke-width:0;stroke-dasharray:none"/><path d="M12 16h1v1h-1z" style="fill:#f7d687;fill-opacity:1;stroke-width:0;stroke-dasharray:none"/><path d="M12 17h1v1h-1zM12 18h1v1h-1zM12 19h1v1h-1z" style="fill:#f8dfa7;fill-opacity:.99973565;stroke-width:0;stroke-dasharray:none"/><path d="M12 20h1v1h-1zM12 21h1v1h-1zM12 22h1v1h-1zM12 23h1v1h-1z" style="fill:#f7d687;fill-opacity:1;stroke-width:0;stroke-dasharray:none"/><path d="M12 24h1v1h-1zM12 25h1v1h-1zM12 26h1v1h-1z" style="fill:#f8dfa7;fill-opacity:.99973565;stroke-width:0;stroke-dasharray:none"/><path d="M12 27h1v1h-1z" style="fill:#e7a141;fill-opacity:1;stroke-width:0;stroke-dasharray:none"/><path d="M12 28h1v1h-1z" style="fill:#f7d687;fill-opacity:1;stroke-width:0;stroke-dasharray:none"/><path d="M12 29h1v1h-1z" style="fill:#e7a141;fill-opacity:1;stroke-width:0;stroke-dasharray:none"/><path d="M12 30h1v1h-1zM12 31h1v1h-1z" style="fill:none;fill-opacity:1;stroke-width:0;stroke-dasharray:none"/><path d="M13 0h1v1h-1z" style="fill:#e7a141;fill-opacity:1;stroke-width:0;stroke-dasharray:none"/><path d="M13 1h1v1h-1zM13 2h1v1h-1zM13 3h1v1h-1zM13 4h1v1h-1zM13 5h1v1h-1zM13 6h1v1h-1zM13 7h1v1h-1zM13 8h1v1h-1z" style="fill:#f8dfa7;fill-opacity:.99973565;stroke-width:0;stroke-dasharray:none"/><path d="M13 9h1v1h-1z" style="fill:#e7a141;fill-opacity:1;stroke-width:0;stroke-dasharray:none"/><path d="M13 10h1v1h-1zM13 11h1v1h-1zM13 12h1v1h-1zM13 13h1v1h-1z" style="fill:#f8dfa7;fill-opacity:.99973565;stroke-width:0;stroke-dasharray:none"/><path d="M13 14h1v1h-1z" style="fill:#e7a141;fill-opacity:1;stroke-width:0;stroke-dasharray:none"/><path d="M13 15h1v1h-1zM13 16h1v1h-1zM13 17h1v1h-1zM13 18h1v1h-1zM13 19h1v1h-1z" style="fill:#f8dfa7;fill-opacity:.99973565;stroke-width:0;stroke-dasharray:none"/><path d="M13 20h1v1h-1zM13 21h1v1h-1zM13 22h1v1h-1zM13 23h1v1h-1z" style="fill:#f7d687;fill-opacity:1;stroke-width:0;stroke-dasharray:none"/><path d="M13 24h1v1h-1zM13 25h1v1h-1zM13 26h1v1h-1zM13 27h1v1h-1z" style="fill:#f8dfa7;fill-opacity:.99973565;stroke-width:0;stroke-dasharray:none"/><path d="M13 28h1v1h-1zM13 29h1v1h-1z" style="fill:#e7a141;fill-opacity:1;stroke-width:0;stroke-dasharray:none"/><path d="M13 30h1v1h-1zM13 31h1v1h-1zM14 0h1v1h-1z" style="fill:none;fill-opacity:1;stroke-width:0;stroke-dasharray:none"/><path d="M14 1h1v1h-1z" style="fill:#e7a141;fill-opacity:1;stroke-width:0;stroke-dasharray:none"/><path d="M14 2h1v1h-1zM14 3h1v1h-1zM14 4h1v1h-1zM14 5h1v1h-1zM14 6h1v1h-1zM14 7h1v1h-1zM14 8h1v1h-1zM14 9h1v1h-1zM14 10h1v1h-1zM14 11h1v1h-1zM14 12h1v1h-1zM14 13h1v1h-1zM14 14h1v1h-1zM14 15h1v1h-1zM14 16h1v1h-1zM14 17h1v1h-1zM14 18h1v1h-1zM14 19h1v1h-1zM14 20h1v1h-1z" style="fill:#f8dfa7;fill-opacity:.99973565;stroke-width:0;stroke-dasharray:none"/><path d="M14 21h1v1h-1zM14 22h1v1h-1z" style="fill:#f7d687;fill-opacity:1;stroke-width:0;stroke-dasharray:none"/><path d="M14 23h1v1h-1zM14 24h1v1h-1zM14 25h1v1h-1zM14 26h1v1h-1zM14 27h1v1h-1zM14 28h1v1h-1zM14 29h1v1h-1z" style="fill:#f8dfa7;fill-opacity:.99973565;stroke-width:0;stroke-dasharray:none"/><path d="M14 30h1v1h-1z" style="fill:#e7a141;fill-opacity:1;stroke-width:0;stroke-dasharray:none"/><path d="M14 31h1v1h-1zM15 0h1v1h-1z" style="fill:none;fill-opacity:1;stroke-width:0;stroke-dasharray:none"/><path d="M15 1h1v1h-1z" style="fill:#e7a141;fill-opacity:1;stroke-width:0;stroke-dasharray:none"/><path d="M15 2h1v1h-1zM15 3h1v1h-1zM15 4h1v1h-1zM15 5h1v1h-1zM15 6h1v1h-1zM15 7h1v1h-1zM15 8h1v1h-1zM15 9h1v1h-1zM15 10h1v1h-1zM15 11h1v1h-1zM15 12h1v1h-1zM15 13h1v1h-1zM15 14h1v1h-1zM15 15h1v1h-1zM15 16h1v1h-1zM15 17h1v1h-1zM15 18h1v1h-1zM15 19h1v1h-1zM15 20h1v1h-1zM15 21h1v1h-1zM15 22h1v1h-1zM15 23h1v1h-1zM15 24h1v1h-1zM15 25h1v1h-1zM15 26h1v1h-1z" style="fill:#f8dfa7;fill-opacity:.99973565;stroke-width:0;stroke-dasharray:none"/><path d="M15 27h1v1h-1zM15 28h1v1h-1zM15 29h1v1h-1z" style="fill:#e7a141;fill-opacity:1;stroke-width:0;stroke-dasharray:none"/><path d="M15 30h1v1h-1zM15 31h1v1h-1zM16 0h1v1h-1z" style="fill:none;fill-opacity:1;stroke-width:0;stroke-dasharray:none"/><path d="M16 1h1v1h-1z" style="fill:#e7a141;fill-opacity:1;stroke-width:0;stroke-dasharray:none"/><path d="M16 2h1v1h-1zM16 3h1v1h-1zM16 4h1v1h-1zM16 5h1v1h-1zM16 6h1v1h-1zM16 7h1v1h-1zM16 8h1v1h-1z" style="fill:#f8dfa7;fill-opacity:.99973565;stroke-width:0;stroke-dasharray:none"/><path d="M16 9h1v1h-1zM16 10h1v1h-1zM16 11h1v1h-1z" style="fill:#c86255;fill-opacity:1;stroke-width:0;stroke-dasharray:none"/><path d="M16 12h1v1h-1zM16 13h1v1h-1zM16 14h1v1h-1zM16 15h1v1h-1zM16 16h1v1h-1zM16 17h1v1h-1zM16 18h1v1h-1zM16 19h1v1h-1zM16 20h1v1h-1zM16 21h1v1h-1zM16 22h1v1h-1zM16 23h1v1h-1zM16 24h1v1h-1zM16 25h1v1h-1zM16 26h1v1h-1zM16 27h1v1h-1zM16 28h1v1h-1z" style="fill:#f8dfa7;fill-opacity:.99973565;stroke-width:0;stroke-dasharray:none"/><path d="M16 29h1v1h-1z" style="fill:#e7a141;fill-opacity:1;stroke-width:0;stroke-dasharray:none"/><path d="M16 30h1v1h-1zM16 31h1v1h-1zM17 0h1v1h-1zM17 1h1v1h-1z" style="fill:none;fill-opacity:1;stroke-width:0;stroke-dasharray:none"/><path d="M17 2h1v1h-1z" style="fill:#e7a141;fill-opacity:1;stroke-width:0;stroke-dasharray:none"/><path d="M17 3h1v1h-1zM17 4h1v1h-1zM17 5h1v1h-1zM17 6h1v1h-1zM17 7h1v1h-1zM17 8h1v1h-1z" style="fill:#f8dfa7;fill-opacity:.99973565;stroke-width:0;stroke-dasharray:none"/><path d="M17 9h1v1h-1zM17 10h1v1h-1zM17 11h1v1h-1z" style="fill:#c86255;fill-opacity:1;stroke-width:0;stroke-dasharray:none"/><path d="M17 12h1v1h-1zM17 13h1v1h-1zM17 14h1v1h-1zM17 15h1v1h-1zM17 16h1v1h-1zM17 17h1v1h-1zM17 18h1v1h-1zM17 19h1v1h-1zM17 20h1v1h-1zM17 21h1v1h-1zM17 22h1v1h-1zM17 23h1v1h-1zM17 24h1v1h-1zM17 25h1v1h-1zM17 26h1v1h-1zM17 27h1v1h-1zM17 28h1v1h-1z" style="fill:#f8dfa7;fill-opacity:.99973565;stroke-width:0;stroke-dasharray:none"/><path d="M17 29h1v1h-1z" style="fill:#e7a141;fill-opacity:1;stroke-width:0;stroke-dasharray:none"/><path d="M17 30h1v1h-1zM17 31h1v1h-1zM18 0h1v1h-1zM18 1h1v1h-1z" style="fill:none;fill-opacity:1;stroke-width:0;stroke-dasharray:none"/><path d="M18 2h1v1h-1z" style="fill:#e7a141;fill-opacity:1;stroke-width:0;stroke-dasharray:none"/><path d="M18 3h1v1h-1zM18 4h1v1h-1zM18 5h1v1h-1zM18 6h1v1h-1z" style="fill:#f8dfa7;fill-opacity:.99973565;stroke-width:0;stroke-dasharray:none"/><path d="M18 7h1v1h-1z" style="fill:#f7d687;fill-opacity:1;stroke-width:0;stroke-dasharray:none"/><path d="M18 8h1v1h-1zM18 9h1v1h-1zM18 10h1v1h-1zM18 11h1v1h-1zM18 12h1v1h-1z" style="fill:#f8dfa7;fill-opacity:.99973565;stroke-width:0;stroke-dasharray:none"/><path d="M18 13h1v1h-1z" style="fill:#f8c58c;fill-opacity:1;stroke-width:0;stroke-dasharray:none"/><path d="M18 14h1v1h-1z" style="fill:#f8dfa7;fill-opacity:1;stroke-width:0;stroke-dasharray:none"/><path d="M18 15h1v1h-1zM18 16h1v1h-1zM18 17h1v1h-1zM18 18h1v1h-1zM18 19h1v1h-1z" style="fill:#f8dfa7;fill-opacity:.99973565;stroke-width:0;stroke-dasharray:none"/><path d="M18 20h1v1h-1z" style="fill:#efbf7b;fill-opacity:1;stroke-width:0;stroke-dasharray:none"/><path d="M18 21h1v1h-1zM18 22h1v1h-1zM18 23h1v1h-1zM18 24h1v1h-1zM18 25h1v1h-1zM18 26h1v1h-1zM18 27h1v1h-1zM18 28h1v1h-1z" style="fill:#f8dfa7;fill-opacity:.99973565;stroke-width:0;stroke-dasharray:none"/><path d="M18 29h1v1h-1z" style="fill:#e7a141;fill-opacity:1;stroke-width:0;stroke-dasharray:none"/><path d="M18 30h1v1h-1zM18 31h1v1h-1zM19 0h1v1h-1zM19 1h1v1h-1z" style="fill:none;fill-opacity:1;stroke-width:0;stroke-dasharray:none"/><path d="M19 2h1v1h-1z" style="fill:#e7a141;fill-opacity:1;stroke-width:0;stroke-dasharray:none"/><path d="M19 3h1v1h-1zM19 4h1v1h-1zM19 5h1v1h-1z" style="fill:#f8dfa7;fill-opacity:.99973565;stroke-width:0;stroke-dasharray:none"/><path d="M19 6h1v1h-1z" style="fill:#f7d687;fill-opacity:1;stroke-width:0;stroke-dasharray:none"/><path d="M19 7h1v1h-1zM19 8h1v1h-1zM19 9h1v1h-1z" style="fill:#e7a141;fill-opacity:1;stroke-width:0;stroke-dasharray:none"/><path d="M19 10h1v1h-1zM19 11h1v1h-1z" style="fill:#f8dfa7;fill-opacity:.99973565;stroke-width:0;stroke-dasharray:none"/><path d="M19 12h1v1h-1zM19 13h1v1h-1zM19 14h1v1h-1z" style="fill:#f8c58c;fill-opacity:1;stroke-width:0;stroke-dasharray:none"/><path d="M19 15h1v1h-1zM19 16h1v1h-1zM19 17h1v1h-1zM19 18h1v1h-1zM19 19h1v1h-1z" style="fill:#f8dfa7;fill-opacity:.99973565;stroke-width:0;stroke-dasharray:none"/><path d="M19 20h1v1h-1z" style="fill:#edb970;fill-opacity:1;stroke-width:0;stroke-dasharray:none"/><path d="M19 21h1v1h-1zM19 22h1v1h-1zM19 23h1v1h-1zM19 24h1v1h-1zM19 25h1v1h-1zM19 26h1v1h-1zM19 27h1v1h-1zM19 28h1v1h-1z" style="fill:#f8dfa7;fill-opacity:.99973565;stroke-width:0;stroke-dasharray:none"/><path d="M19 29h1v1h-1z" style="fill:#e7a141;fill-opacity:1;stroke-width:0;stroke-dasharray:none"/><path d="M19 30h1v1h-1zM19 31h1v1h-1zM20 0h1v1h-1zM20 1h1v1h-1zM20 2h1v1h-1z" style="fill:none;fill-opacity:1;stroke-width:0;stroke-dasharray:none"/><path d="M20 3h1v1h-1z" style="fill:#e7a141;fill-opacity:1;stroke-width:0;stroke-dasharray:none"/><path d="M20 4h1v1h-1zM20 5h1v1h-1zM20 6h1v1h-1z" style="fill:#f8dfa7;fill-opacity:.99973565;stroke-width:0;stroke-dasharray:none"/><path d="M20 7h1v1h-1zM20 8h1v1h-1zM20 9h1v1h-1z" style="fill:#f7d687;fill-opacity:1;stroke-width:0;stroke-dasharray:none"/><path d="M20 10h1v1h-1zM20 11h1v1h-1zM20 12h1v1h-1zM20 13h1v1h-1z" style="fill:#e7a141;fill-opacity:1;stroke-width:0;stroke-dasharray:none"/><path d="M20 14h1v1h-1zM20 15h1v1h-1zM20 16h1v1h-1zM20 17h1v1h-1zM20 18h1v1h-1zM20 19h1v1h-1z" style="fill:#f8dfa7;fill-opacity:.99973565;stroke-width:0;stroke-dasharray:none"/><path d="M20 20h1v1h-1z" style="fill:#eaad58;fill-opacity:1;stroke-width:0;stroke-dasharray:none"/><path d="M20 21h1v1h-1zM20 22h1v1h-1zM20 23h1v1h-1zM20 24h1v1h-1zM20 25h1v1h-1zM20 26h1v1h-1zM20 27h1v1h-1zM20 28h1v1h-1z" style="fill:#f8dfa7;fill-opacity:.99973565;stroke-width:0;stroke-dasharray:none"/><path d="M20 29h1v1h-1z" style="fill:#e7a141;fill-opacity:1;stroke-width:0;stroke-dasharray:none"/><path d="M20 30h1v1h-1zM20 31h1v1h-1zM21 0h1v1h-1zM21 1h1v1h-1zM21 2h1v1h-1z" style="fill:none;fill-opacity:1;stroke-width:0;stroke-dasharray:none"/><path d="M21 3h1v1h-1z" style="fill:#e7a141;fill-opacity:1;stroke-width:0;stroke-dasharray:none"/><path d="M21 4h1v1h-1zM21 5h1v1h-1zM21 6h1v1h-1zM21 7h1v1h-1z" style="fill:#f8dfa7;fill-opacity:.99973565;stroke-width:0;stroke-dasharray:none"/><path d="M21 8h1v1h-1zM21 9h1v1h-1z" style="fill:#f7d687;fill-opacity:1;stroke-width:0;stroke-dasharray:none"/><path d="M21 10h1v1h-1zM21 11h1v1h-1zM21 12h1v1h-1zM21 13h1v1h-1z" style="fill:#f8dfa7;fill-opacity:.99973565;stroke-width:0;stroke-dasharray:none"/><path d="M21 14h1v1h-1z" style="fill:#e7a141;fill-opacity:1;stroke-width:0;stroke-dasharray:none"/><path d="M21 15h1v1h-1zM21 16h1v1h-1zM21 17h1v1h-1zM21 18h1v1h-1zM21 19h1v1h-1z" style="fill:#f8dfa7;fill-opacity:.99973565;stroke-width:0;stroke-dasharray:none"/><path d="M21 20h1v1h-1z" style="fill:#e7a141;fill-opacity:1;stroke-width:0;stroke-dasharray:none"/><path d="M21 21h1v1h-1zM21 22h1v1h-1z" style="fill:#f8dfa7;fill-opacity:.99973565;stroke-width:0;stroke-dasharray:none"/><path d="M21 23h1v1h-1z" style="fill:#e7a141;fill-opacity:1;stroke-width:0;stroke-dasharray:none"/><path d="M21 24h1v1h-1zM21 25h1v1h-1zM21 26h1v1h-1zM21 27h1v1h-1zM21 28h1v1h-1z" style="fill:#f8dfa7;fill-opacity:.99973565;stroke-width:0;stroke-dasharray:none"/><path d="M21 29h1v1h-1z" style="fill:#e7a141;fill-opacity:1;stroke-width:0;stroke-dasharray:none"/><path d="M21 30h1v1h-1zM21 31h1v1h-1zM22 0h1v1h-1zM22 1h1v1h-1zM22 2h1v1h-1zM22 3h1v1h-1z" style="fill:none;fill-opacity:1;stroke-width:0;stroke-dasharray:none"/><path d="M22 4h1v1h-1z" style="fill:#e7a141;fill-opacity:1;stroke-width:0;stroke-dasharray:none"/><path d="M22 5h1v1h-1zM22 6h1v1h-1zM22 7h1v1h-1zM22 8h1v1h-1zM22 9h1v1h-1zM22 10h1v1h-1zM22 11h1v1h-1z" style="fill:#f8dfa7;fill-opacity:.99973565;stroke-width:0;stroke-dasharray:none"/><path d="M22 12h1v1h-1zM22 13h1v1h-1z" style="fill:#e7a141;fill-opacity:1;stroke-width:0;stroke-dasharray:none"/><path d="M22 14h1v1h-1zM22 15h1v1h-1zM22 16h1v1h-1zM22 17h1v1h-1zM22 18h1v1h-1z" style="fill:#f8dfa7;fill-opacity:.99973565;stroke-width:0;stroke-dasharray:none"/><path d="M22 19h1v1h-1z" style="fill:#e7a141;fill-opacity:1;stroke-width:0;stroke-dasharray:none"/><path d="M22 20h1v1h-1z" style="fill:none;fill-opacity:1;stroke-width:0;stroke-dasharray:none"/><path d="M22 21h1v1h-1zM22 22h1v1h-1z" style="fill:#e7a141;fill-opacity:1;stroke-width:0;stroke-dasharray:none"/><path d="M22 23h1v1h-1z" style="fill:none;fill-opacity:1;stroke-width:0;stroke-dasharray:none"/><path d="M22 24h1v1h-1z" style="fill:#e7a141;fill-opacity:1;stroke-width:0;stroke-dasharray:none"/><path d="M22 25h1v1h-1zM22 26h1v1h-1zM22 27h1v1h-1zM22 28h1v1h-1z" style="fill:#f8dfa7;fill-opacity:.99973565;stroke-width:0;stroke-dasharray:none"/><path d="M22 29h1v1h-1z" style="fill:#e7a141;fill-opacity:1;stroke-width:0;stroke-dasharray:none"/><path d="M22 30h1v1h-1zM22 31h1v1h-1zM23 0h1v1h-1zM23 1h1v1h-1zM23 2h1v1h-1zM23 3h1v1h-1zM23 4h1v1h-1z" style="fill:none;fill-opacity:1;stroke-width:0;stroke-dasharray:none"/><path d="M23 5h1v1h-1z" style="fill:#e7a141;fill-opacity:1;stroke-width:0;stroke-dasharray:none"/><path d="M23 6h1v1h-1zM23 7h1v1h-1zM23 8h1v1h-1zM23 9h1v1h-1zM23 10h1v1h-1z" style="fill:#f8dfa7;fill-opacity:.99973565;stroke-width:0;stroke-dasharray:none"/><path d="M23 11h1v1h-1z" style="fill:#e7a141;fill-opacity:1;stroke-width:0;stroke-dasharray:none"/><path d="M23 12h1v1h-1z" style="fill:none;fill-opacity:1;stroke-width:0;stroke-dasharray:none"/><path d="M23 13h1v1h-1z" style="fill:#e7a141;fill-opacity:1;stroke-width:0;stroke-dasharray:none"/><path d="M23 14h1v1h-1zM23 15h1v1h-1zM23 16h1v1h-1zM23 17h1v1h-1z" style="fill:#f8dfa7;fill-opacity:.99973565;stroke-width:0;stroke-dasharray:none"/><path d="M23 18h1v1h-1z" style="fill:#e7a141;fill-opacity:1;stroke-width:0;stroke-dasharray:none"/><path d="M23 19h1v1h-1zM23 20h1v1h-1zM23 21h1v1h-1zM23 22h1v1h-1zM23 23h1v1h-1zM23 24h1v1h-1z" style="fill:none;fill-opacity:1;stroke-width:0;stroke-dasharray:none"/><path d="M23 25h1v1h-1z" style="fill:#e7a141;fill-opacity:1;stroke-width:0;stroke-dasharray:none"/><path d="M23 26h1v1h-1zM23 27h1v1h-1zM23 28h1v1h-1z" style="fill:#f8dfa7;fill-opacity:.99973565;stroke-width:0;stroke-dasharray:none"/><path d="M23 29h1v1h-1z" style="fill:#e7a141;fill-opacity:1;stroke-width:0;stroke-dasharray:none"/><path d="M23 30h1v1h-1zM23 31h1v1h-1zM24 0h1v1h-1zM24 1h1v1h-1zM24 2h1v1h-1zM24 3h1v1h-1zM24 4h1v1h-1z" style="fill:none;fill-opacity:1;stroke-width:0;stroke-dasharray:none"/><path d="M24 5h1v1h-1z" style="fill:#e7a141;fill-opacity:1;stroke-width:0;stroke-dasharray:none"/><path d="M24 6h1v1h-1zM24 7h1v1h-1zM24 8h1v1h-1zM24 9h1v1h-1z" style="fill:#f8dfa7;fill-opacity:.99973565;stroke-width:0;stroke-dasharray:none"/><path d="M24 10h1v1h-1z" style="fill:#e7a141;fill-opacity:1;stroke-width:0;stroke-dasharray:none"/><path d="M24 11h1v1h-1zM24 12h1v1h-1zM24 13h1v1h-1z" style="fill:none;fill-opacity:1;stroke-width:0;stroke-dasharray:none"/><path d="M24 14h1v1h-1zM24 15h1v1h-1zM24 16h1v1h-1zM24 17h1v1h-1z" style="fill:#e7a141;fill-opacity:1;stroke-width:0;stroke-dasharray:none"/><path d="M24 18h1v1h-1zM24 19h1v1h-1zM24 20h1v1h-1zM24 21h1v1h-1zM24 22h1v1h-1zM24 23h1v1h-1zM24 24h1v1h-1z" style="fill:none;fill-opacity:1;stroke-width:0;stroke-dasharray:none"/><path d="M24 25h1v1h-1zM24 26h1v1h-1z" style="fill:#e7a141;fill-opacity:1;stroke-width:0;stroke-dasharray:none"/><path d="M24 27h1v1h-1z" style="fill:#f8dfa7;fill-opacity:1;stroke-width:0;stroke-dasharray:none"/><path d="M24 28h1v1h-1zM24 29h1v1h-1z" style="fill:#e7a141;fill-opacity:1;stroke-width:0;stroke-dasharray:none"/><path d="M24 30h1v1h-1zM24 31h1v1h-1zM25 0h1v1h-1zM25 1h1v1h-1zM25 2h1v1h-1zM25 3h1v1h-1zM25 4h1v1h-1zM25 5h1v1h-1z" style="fill:none;fill-opacity:1;stroke-width:0;stroke-dasharray:none"/><path d="M25 6h1v1h-1zM25 7h1v1h-1zM25 8h1v1h-1zM25 9h1v1h-1z" style="fill:#e7a141;fill-opacity:1;stroke-width:0;stroke-dasharray:none"/><path d="M25 10h1v1h-1zM25 11h1v1h-1zM25 12h1v1h-1zM25 13h1v1h-1zM25 14h1v1h-1zM25 15h1v1h-1zM25 16h1v1h-1zM25 17h1v1h-1zM25 18h1v1h-1zM25 19h1v1h-1zM25 20h1v1h-1zM25 21h1v1h-1zM25 22h1v1h-1zM25 23h1v1h-1z" style="fill:none;fill-opacity:1;stroke-width:0;stroke-dasharray:none"/><path d="M25 24h1v1h-1z" style="fill:#e7a141;fill-opacity:1;stroke-width:0;stroke-dasharray:none"/><path d="M25 25h1v1h-1zM25 26h1v1h-1z" style="fill:#f7d687;fill-opacity:1;stroke-width:0;stroke-dasharray:none"/><path d="M25 27h1v1h-1zM25 28h1v1h-1zM25 29h1v1h-1z" style="fill:#e7a141;fill-opacity:1;stroke-width:0;stroke-dasharray:none"/><path d="M25 30h1v1h-1zM25 31h1v1h-1zM26 0h1v1h-1zM26 1h1v1h-1zM26 2h1v1h-1zM26 3h1v1h-1zM26 4h1v1h-1zM26 5h1v1h-1zM26 6h1v1h-1zM26 7h1v1h-1zM26 8h1v1h-1zM26 9h1v1h-1zM26 10h1v1h-1zM26 11h1v1h-1zM26 12h1v1h-1zM26 13h1v1h-1zM26 14h1v1h-1zM26 15h1v1h-1zM26 16h1v1h-1zM26 17h1v1h-1zM26 18h1v1h-1zM26 19h1v1h-1zM26 20h1v1h-1z" style="fill:none;fill-opacity:1;stroke-width:0;stroke-dasharray:none"/><path d="M26 21h1v1h-1zM26 22h1v1h-1zM26 23h1v1h-1z" style="fill:#e7a141;fill-opacity:1;stroke-width:0;stroke-dasharray:none"/><path d="M26 24h1v1h-1z" style="fill:#f8dfa7;fill-opacity:.99973565;stroke-width:0;stroke-dasharray:none"/><path d="M26 25h1v1h-1zM26 26h1v1h-1zM26 27h1v1h-1z" style="fill:#f7d687;fill-opacity:1;stroke-width:0;stroke-dasharray:none"/><path d="M26 28h1v1h-1z" style="fill:#e7a141;fill-opacity:1;stroke-width:0;stroke-dasharray:none"/><path d="M26 29h1v1h-1zM26 30h1v1h-1zM26 31h1v1h-1zM27 0h1v1h-1zM27 1h1v1h-1zM27 2h1v1h-1zM27 3h1v1h-1zM27 4h1v1h-1zM27 5h1v1h-1zM27 6h1v1h-1zM27 7h1v1h-1zM27 8h1v1h-1zM27 9h1v1h-1zM27 10h1v1h-1zM27 11h1v1h-1zM27 12h1v1h-1zM27 13h1v1h-1zM27 14h1v1h-1zM27 15h1v1h-1zM27 16h1v1h-1zM27 17h1v1h-1zM27 18h1v1h-1z" style="fill:none;fill-opacity:1;stroke-width:0;stroke-dasharray:none"/><path d="M27 19h1v1h-1zM27 20h1v1h-1zM27 21h1v1h-1z" style="fill:#e7a141;fill-opacity:1;stroke-width:0;stroke-dasharray:none"/><path d="M27 22h1v1h-1zM27 23h1v1h-1zM27 24h1v1h-1z" style="fill:#f8dfa7;fill-opacity:.99973565;stroke-width:0;stroke-dasharray:none"/><path d="M27 25h1v1h-1zM27 26h1v1h-1zM27 27h1v1h-1zM27 28h1v1h-1z" style="fill:#f7d687;fill-opacity:1;stroke-width:0;stroke-dasharray:none"/><path d="M27 29h1v1h-1z" style="fill:#e7a141;fill-opacity:1;stroke-width:0;stroke-dasharray:none"/><path d="M27 30h1v1h-1zM27 31h1v1h-1zM28 0h1v1h-1zM28 1h1v1h-1zM28 2h1v1h-1zM28 3h1v1h-1zM28 4h1v1h-1zM28 5h1v1h-1zM28 6h1v1h-1zM28 7h1v1h-1zM28 8h1v1h-1zM28 9h1v1h-1zM28 10h1v1h-1zM28 11h1v1h-1zM28 12h1v1h-1zM28 13h1v1h-1zM28 14h1v1h-1zM28 15h1v1h-1zM28 16h1v1h-1zM28 17h1v1h-1z" style="fill:none;fill-opacity:1;stroke-width:0;stroke-dasharray:none"/><path d="M28 18h1v1h-1zM28 19h1v1h-1z" style="fill:#e7a141;fill-opacity:1;stroke-width:0;stroke-dasharray:none"/><path d="M28 20h1v1h-1zM28 21h1v1h-1zM28 22h1v1h-1zM28 23h1v1h-1zM28 24h1v1h-1zM28 25h1v1h-1z" style="fill:#f8dfa7;fill-opacity:.99973565;stroke-width:0;stroke-dasharray:none"/><path d="M28 26h1v1h-1zM28 27h1v1h-1zM28 28h1v1h-1z" style="fill:#f7d687;fill-opacity:1;stroke-width:0;stroke-dasharray:none"/><path d="M28 29h1v1h-1z" style="fill:#e7a141;fill-opacity:1;stroke-width:0;stroke-dasharray:none"/><path d="M28 30h1v1h-1zM28 31h1v1h-1zM29 0h1v1h-1zM29 1h1v1h-1zM29 2h1v1h-1zM29 3h1v1h-1zM29 4h1v1h-1zM29 5h1v1h-1zM29 6h1v1h-1zM29 7h1v1h-1zM29 8h1v1h-1zM29 9h1v1h-1zM29 10h1v1h-1zM29 11h1v1h-1zM29 12h1v1h-1zM29 13h1v1h-1zM29 14h1v1h-1zM29 15h1v1h-1zM29 16h1v1h-1zM29 17h1v1h-1z" style="fill:none;fill-opacity:1;stroke-width:0;stroke-dasharray:none"/><path d="M29 18h1v1h-1zM29 19h1v1h-1z" style="fill:#e7a141;fill-opacity:1;stroke-width:0;stroke-dasharray:none"/><path d="M29 20h1v1h-1z" style="fill:#f8dfa7;fill-opacity:1;stroke-width:0;stroke-dasharray:none"/><path d="M29 21h1v1h-1zM29 22h1v1h-1zM29 23h1v1h-1zM29 24h1v1h-1z" style="fill:#f8dfa7;fill-opacity:.99973565;stroke-width:0;stroke-dasharray:none"/><path d="M29 25h1v1h-1zM29 26h1v1h-1z" style="fill:#f8dfa7;fill-opacity:1;stroke-width:0;stroke-dasharray:none"/><path d="M29 27h1v1h-1z" style="fill:#f7d687;fill-opacity:1;stroke-width:0;stroke-dasharray:none"/><path d="M29 28h1v1h-1z" style="fill:#e7a141;fill-opacity:1;stroke-width:0;stroke-dasharray:none"/><path d="M29 29h1v1h-1zM29 30h1v1h-1zM29 31h1v1h-1zM30 0h1v1h-1zM30 1h1v1h-1zM30 2h1v1h-1zM30 3h1v1h-1zM30 4h1v1h-1zM30 5h1v1h-1zM30 6h1v1h-1zM30 7h1v1h-1zM30 8h1v1h-1zM30 9h1v1h-1zM30 10h1v1h-1zM30 11h1v1h-1zM30 12h1v1h-1zM30 13h1v1h-1zM30 14h1v1h-1zM30 15h1v1h-1zM30 16h1v1h-1zM30 17h1v1h-1zM30 18h1v1h-1z" style="fill:none;fill-opacity:1;stroke-width:0;stroke-dasharray:none"/><path d="M30 19h1v1h-1zM30 20h1v1h-1zM30 21h1v1h-1zM30 22h1v1h-1z" style="fill:#e7a141;fill-opacity:1;stroke-width:0;stroke-dasharray:none"/><path d="M30 23h1v1h-1zM30 24h1v1h-1zM30 25h1v1h-1z" style="fill:#f8dfa7;fill-opacity:1;stroke-width:0;stroke-dasharray:none"/><path d="M30 26h1v1h-1zM30 27h1v1h-1z" style="fill:#e7a141;fill-opacity:1;stroke-width:0;stroke-dasharray:none"/><path d="M30 28h1v1h-1zM30 29h1v1h-1zM30 30h1v1h-1zM30 31h1v1h-1z" style="fill:none;fill-opacity:1;stroke-width:0;stroke-dasharray:none"/><path d="M23 11h1v1h-1z" style="fill:#e7a141;fill-opacity:1;stroke-width:0;stroke-dasharray:none"/></svg>